<svg width="81" height="31" xmlns="http://www.w3.org/2000/svg"><g fill="none" fill-rule="evenodd"><path d="M46.872 6.105h-.032l-2.027.003.002 1.886h-3.901a.64.64 0 0 0-.644.603l-.001.032v2.008h4.548v3.603l-.007 1.463-.003.163-.004.159c-.008.267-.02.603-.039.853l-.011.149-.03.346h-4.73a.64.64 0 0 0-.645.604v2.039h5.212c-.958 2.675-2.749 4.425-5.213 5.39l.645 2.173c.063.21.372.27.52.21 1.769-.698 4.89-2.459 6.474-6.655 1.402 3.99 4.65 5.85 6.125 6.511l.124.055c.491.213.7 0 .779-.264l.607-2.03c-.997-.395-3.95-1.672-5.203-5.39H54.005a.64.64 0 0 0 .62-.603v-2.04h-1.28V8.63a.64.64 0 0 0-.614-.634l-.032-.001h-5.212l-.002-1.268V6.705a.638.638 0 0 0-.58-.598l-.033-.002zm-9.504 0H35.34v21.017c0 .34.271.618.612.634l.032.001 2.028-.012V14.987h1.609a.64.64 0 0 0 .62-.603v-2.04h-2.23V6.716a.64.64 0 0 0-.612-.61h-.032zm38.923.252c-.355.507-1.04 1.083-2.048 1.095h-15.6V9.46c0 .329.254.6.58.631l.033.003h8.243v3.463h-7.462a.64.64 0 0 0-.644.604v.032l-.001 2.007h8.107v3.15h-9.78a.64.64 0 0 0-.645.603v2.039h10.425v2.345l-.002.043-.002.022-.004.036a.795.795 0 0 1-.755.674l-.037.001H63.1l.583 2.157a.66.66 0 0 0 .56.483l.033.002h2.509l.055-.002.059-.003c1.814-.102 3.242-1.574 3.272-3.37v-2.388h9.434a.64.64 0 0 0 .62-.603v-2.04H70.171V16.2h7.032a.64.64 0 0 0 .62-.603l.001-.031v-2.008H70.17v-3.463c.885.005 2.223.004 4.014-.004 2.918.012 4.411-2.102 4.808-3.076l-1.93-.825c-.367-.157-.638-.024-.772.167zM33.574 8.98h-2.028v7.203l-.002.23-.002.145a16.74 16.74 0 0 1-.761 4.544.632.632 0 0 0 .354.765l.031.012 1.97.658c.678-1.875 1.041-3.843 1.08-5.99l.001-.174.001-.17.002-.708-.002-.001v-5.91a.64.64 0 0 0-.58-.6l-.032-.003-.032-.001zm13.916 1.656h3.182v6.737h-3.264l.029-.402c.025-.383.04-.86.046-1.279l.001-.18.002-.447.004-4.429z" fill="#FFF" fill-rule="nonzero"/><path d="M21.02 16.34c2.903 0 5.255 2.34 5.255 5.225v4.15c0 2.885-2.352 5.224-5.255 5.224h-7.728a5.255 5.255 0 0 1-4.995-3.597l-4.604 2.294a2.557 2.557 0 0 1-3.423-1.13A2.523 2.523 0 0 1 0 27.37v-7.442c0-1.4 1.142-2.535 2.55-2.535.4 0 .795.093 1.152.273l4.584 2.307a5.254 5.254 0 0 1 5.006-3.632h7.728zm-.033 2.69H13.37a2.62 2.62 0 0 0-2.628 2.569v4.038a2.62 2.62 0 0 0 2.584 2.612h7.617a2.62 2.62 0 0 0 2.627-2.568v-4.039a2.62 2.62 0 0 0-2.583-2.612zM3.4 20.65a.694.694 0 0 0-.695.679v4.678a.697.697 0 0 0 1 .622l.011-.006 4.321-2.191v-1.55l-4.325-2.158a.699.699 0 0 0-.312-.074zM9.815.975A7.114 7.114 0 0 1 16.02 4.59a6.1 6.1 0 0 1 4.15-1.619c3.372 0 6.105 2.718 6.105 6.07 0 3.352-2.733 6.07-6.105 6.07a6.108 6.108 0 0 1-4.934-2.495 7.112 7.112 0 0 1-5.421 2.495c-3.927 0-7.11-3.165-7.11-7.069S5.888.975 9.815.975zm0 2.842c-2.348 0-4.25 1.892-4.25 4.226s1.902 4.226 4.25 4.226c2.347 0 4.25-1.892 4.25-4.226s-1.903-4.226-4.25-4.226zM20.17 5.815a3.236 3.236 0 0 0-3.245 3.227 3.236 3.236 0 0 0 3.245 3.227 3.236 3.236 0 0 0 3.246-3.227 3.236 3.236 0 0 0-3.246-3.227z" fill="#FF3D13"/></g></svg>